<svg xmlns="http://www.w3.org/2000/svg" height="32" width="32">
  <path style="fill:#ffffff;stroke-width:0.123245;fill-opacity:1" d="M 15.989258,0 C 15.494481,9.0067e-4 15.018398,0.02125749 14.311524,0.1367271 10.884573,0.83101784 8.58212,2.8036269 7.424805,6.0374779 7.1403389,6.8322993 7.0038488,7.1066034 7.0009768,8.709516 c -0.00296,1.612727 0.1273138,1.869022 0.4257812,2.718917 L 18.50293,0.3535372 C 18.228587,0.27631561 17.95751,0.19558524 17.666992,0.1367271 16.960118,0.02125749 16.484035,9.0067e-4 15.989258,0 Z M 21.374024,1.7012757 8.9306643,14.145394 c 0.3444097,0.436367 0.715453,0.855956 1.1425777,1.236404 l 0.484375,0.429714 -0.6152339,0.285173 C 7.50994,17.224788 5.43254,19.174009 3.9580081,21.712263 3.035267,23.300668 2.7040732,25.581831 2.5849611,26.437161 2.4658492,27.29249 2.326925,28.271606 2.299805,29.234206 2.27767,30.02015 2.243157,30.988984 2.227539,31.441372 l 22.75,-22.7513885 C 24.973361,7.1081173 24.836764,6.828352 24.553711,6.0374779 23.882313,4.1614094 22.812198,2.7250529 21.374024,1.7012757 Z m 0.49414,14.3172803 -15.9707029,15.973632 10.0917969,-0.02344 0.521484,0.002 11.027344,-11.028017 C 26.106994,18.7807 24.215418,17.10738 22.036133,16.096685 Z m 6.990235,7.822743 -8.138672,8.137216 9.052734,0.02149 -0.0059,-0.0625 c 0,0 -0.06078,-1.74069 -0.08789,-2.70329 -0.02712,-0.9626 -0.166044,-1.941716 -0.285156,-2.797045 -0.07076,-0.508111 -0.235159,-1.525543 -0.535156,-2.595862 z" />
</svg>
