<?xml version="1.0" encoding="UTF-8" standalone="no"?>
<svg
   xmlns:dc="http://purl.org/dc/elements/1.1/"
   xmlns:cc="http://creativecommons.org/ns#"
   xmlns:rdf="http://www.w3.org/1999/02/22-rdf-syntax-ns#"
   xmlns:svg="http://www.w3.org/2000/svg"
   xmlns="http://www.w3.org/2000/svg"
   xmlns:sodipodi="http://sodipodi.sourceforge.net/DTD/sodipodi-0.dtd"
   xmlns:inkscape="http://www.inkscape.org/namespaces/inkscape"
   height="32"
   width="32"
   version="1"
   viewBox="0 0 32 32"
   id="svg4"
   sodipodi:docname="app.svg"
   inkscape:version="1.0.1 (3bc2e813f5, 2020-09-07)">
  <metadata
     id="metadata10">
    <rdf:RDF>
      <cc:Work
         rdf:about="">
        <dc:format>image/svg+xml</dc:format>
        <dc:type
           rdf:resource="http://purl.org/dc/dcmitype/StillImage" />
        <dc:title></dc:title>
      </cc:Work>
    </rdf:RDF>
  </metadata>
  <defs
     id="defs8" />
  <sodipodi:namedview
     pagecolor="#ffffff"
     bordercolor="#666666"
     borderopacity="1"
     objecttolerance="10"
     gridtolerance="10"
     guidetolerance="10"
     inkscape:pageopacity="0"
     inkscape:pageshadow="2"
     inkscape:window-width="1848"
     inkscape:window-height="1016"
     id="namedview6"
     showgrid="false"
     inkscape:zoom="5.2076861"
     inkscape:cx="19.057488"
     inkscape:cy="32.370456"
     inkscape:window-x="72"
     inkscape:window-y="27"
     inkscape:window-maximized="1"
     inkscape:current-layer="svg4"
     inkscape:document-rotation="0"
     inkscape:snap-object-midpoints="true" />
  <path
     id="path893"
     style="fill:#ffffff;stroke-width:0.123245;fill-opacity:1"
     d="M 15.780274,0 C 15.285497,9.0067e-4 14.809414,0.02125748 14.10254,0.1367271 10.675589,0.83101784 8.3731354,2.8036269 7.2158204,6.0374779 6.9313544,6.8322993 6.7948642,7.1066034 6.7919923,8.709516 c -3.596e-4,0.1956387 0.00813,0.3174991 0.011719,0.4765916 L 15.983399,0.00585973 C 15.91734,0.00486359 15.846404,1.2038e-4 15.780274,0 Z M 21.004882,1.5821279 8.600586,13.987182 c 0.3744031,0.495873 0.7854618,0.968663 1.2636715,1.394616 l 0.4843755,0.429714 -0.6152345,0.285173 c -2.432443,1.128103 -4.509843,3.077324 -5.984375,5.615578 -0.8197413,1.411101 -1.1604217,3.315063 -1.3125,4.334249 L 23.766601,4.7151316 C 23.083511,3.4065088 22.161062,2.363558 21.004882,1.5821279 Z m 3.646485,8.8442891 -21.5703123,21.57163 5.9101563,-0.01367 14.761718,-14.76262 c -0.612666,-0.432189 -1.253672,-0.813363 -1.925781,-1.125069 l -0.615234,-0.285173 0.484375,-0.429714 c 1.218476,-1.085323 2.103693,-2.402794 2.636718,-3.926021 0.144273,-0.412289 0.247263,-0.687438 0.31836,-1.02936 z m 2.390625,10.10218 -11.439452,11.440151 h 0.177734 l 5.705077,0.01367 7.369141,-7.369591 c -0.212595,-0.945406 -0.531437,-2.020013 -1.042969,-2.900564 -0.239539,-0.412342 -0.499235,-0.803409 -0.769531,-1.183666 z m 2.470703,10.024049 -1.44336,1.443448 1.494141,0.0039 -0.0059,-0.0625 c 0,0 -0.02572,-0.809845 -0.04492,-1.38485 z" />
</svg>
