<?xml version="1.0" encoding="UTF-8" standalone="no"?>
<svg
   xmlns:dc="http://purl.org/dc/elements/1.1/"
   xmlns:cc="http://creativecommons.org/ns#"
   xmlns:rdf="http://www.w3.org/1999/02/22-rdf-syntax-ns#"
   xmlns:svg="http://www.w3.org/2000/svg"
   xmlns="http://www.w3.org/2000/svg"
   xmlns:sodipodi="http://sodipodi.sourceforge.net/DTD/sodipodi-0.dtd"
   xmlns:inkscape="http://www.inkscape.org/namespaces/inkscape"
   height="32"
   width="32"
   version="1"
   viewBox="0 0 32 32"
   id="svg4"
   sodipodi:docname="app.svg"
   inkscape:version="1.0.1 (3bc2e813f5, 2020-09-07)">
  <metadata
     id="metadata10">
    <rdf:RDF>
      <cc:Work
         rdf:about="">
        <dc:format>image/svg+xml</dc:format>
        <dc:type
           rdf:resource="http://purl.org/dc/dcmitype/StillImage" />
        <dc:title></dc:title>
      </cc:Work>
    </rdf:RDF>
  </metadata>
  <defs
     id="defs8" />
  <sodipodi:namedview
     pagecolor="#ffffff"
     bordercolor="#666666"
     borderopacity="1"
     objecttolerance="10"
     gridtolerance="10"
     guidetolerance="10"
     inkscape:pageopacity="0"
     inkscape:pageshadow="2"
     inkscape:window-width="1848"
     inkscape:window-height="1016"
     id="namedview6"
     showgrid="false"
     inkscape:zoom="2.6447618"
     inkscape:cx="19.012977"
     inkscape:cy="55.349861"
     inkscape:window-x="72"
     inkscape:window-y="27"
     inkscape:window-maximized="1"
     inkscape:current-layer="svg4"
     inkscape:document-rotation="0"
     inkscape:snap-object-midpoints="true" />
  <path
     id="path893"
     style="fill:#ffffff;stroke-width:0.123245;fill-opacity:1"
     d="M 15.780274,0 C 15.285497,9.0067e-4 14.809414,0.02125749 14.10254,0.1367271 10.675589,0.83101784 8.3731354,2.8036269 7.2158204,6.0374779 6.9313544,6.8322993 6.7948642,7.1066034 6.7919923,8.709516 6.7915944,8.9259894 6.7992619,9.0647075 6.803711,9.2368919 L 16.032226,0.00781297 C 15.950086,0.0062492 15.862306,1.4932e-4 15.780274,0 Z M 21.032226,1.6016603 8.6201173,14.014527 c 0.3695167,0.485736 0.7745409,0.948987 1.2441402,1.367271 l 0.4843755,0.429714 -0.6152345,0.285173 c -2.432443,1.128103 -4.509843,3.077324 -5.984375,5.615578 -0.8197413,1.411101 -1.1604217,3.315063 -1.3125,4.334249 L 23.766601,4.7151316 C 23.088826,3.4171781 22.175343,2.3810725 21.032226,1.6016603 Z m 3.619141,8.8247567 -21.5703123,21.57163 5.859375,-0.01367 14.7851553,-14.786058 c -0.603923,-0.423497 -1.23703,-0.794887 -1.898437,-1.101631 l -0.615234,-0.285173 0.484375,-0.429714 c 1.218476,-1.085323 2.103693,-2.402794 2.636718,-3.926021 0.144273,-0.412289 0.247263,-0.687438 0.31836,-1.02936 z m 2.36914,10.072881 -11.468749,11.46945 h 0.228516 l 13.783202,0.03125 -0.0059,-0.0625 c 0,0 -0.06078,-1.74069 -0.08789,-2.70329 -0.02712,-0.9626 -0.166044,-1.941716 -0.285156,-2.797045 -0.119112,-0.85533 -0.450306,-3.136493 -1.373047,-4.724898 -0.245779,-0.423084 -0.512885,-0.823686 -0.791016,-1.212965 z" />
</svg>
