<?xml version="1.0" encoding="UTF-8" standalone="no"?>
<svg
   xmlns:dc="http://purl.org/dc/elements/1.1/"
   xmlns:cc="http://creativecommons.org/ns#"
   xmlns:rdf="http://www.w3.org/1999/02/22-rdf-syntax-ns#"
   xmlns:svg="http://www.w3.org/2000/svg"
   xmlns="http://www.w3.org/2000/svg"
   xmlns:sodipodi="http://sodipodi.sourceforge.net/DTD/sodipodi-0.dtd"
   xmlns:inkscape="http://www.inkscape.org/namespaces/inkscape"
   height="32"
   width="32"
   version="1"
   viewBox="0 0 32 32"
   id="svg4"
   sodipodi:docname="app.svg"
   inkscape:version="1.0.1 (3bc2e813f5, 2020-09-07)">
  <metadata
     id="metadata10">
    <rdf:RDF>
      <cc:Work
         rdf:about="">
        <dc:format>image/svg+xml</dc:format>
        <dc:type
           rdf:resource="http://purl.org/dc/dcmitype/StillImage" />
        <dc:title></dc:title>
      </cc:Work>
    </rdf:RDF>
  </metadata>
  <defs
     id="defs8" />
  <sodipodi:namedview
     pagecolor="#ffffff"
     bordercolor="#666666"
     borderopacity="1"
     objecttolerance="10"
     gridtolerance="10"
     guidetolerance="10"
     inkscape:pageopacity="0"
     inkscape:pageshadow="2"
     inkscape:window-width="1848"
     inkscape:window-height="1016"
     id="namedview6"
     showgrid="false"
     inkscape:zoom="5.2076861"
     inkscape:cx="19.057488"
     inkscape:cy="32.370456"
     inkscape:window-x="72"
     inkscape:window-y="27"
     inkscape:window-maximized="1"
     inkscape:current-layer="svg4"
     inkscape:document-rotation="0"
     inkscape:snap-object-midpoints="true" />
  <path
     id="path893"
     style="fill:#ffffff;stroke-width:0.123245;fill-opacity:1"
     d="M 15.979492,0 C 15.484715,9.0067e-4 15.008632,0.02125749 14.301758,0.1367271 10.874807,0.83101784 8.572354,2.8036269 7.415039,6.0374779 7.130573,6.8322993 6.9940828,7.1066034 6.9912109,8.709516 c -0.00125,0.6788951 0.025892,1.0908942 0.074219,1.433681 L 17.133789,0.07422328 C 16.707979,0.02603924 16.333237,6.4394e-4 15.979492,0 Z M 21.790039,2.015748 9.2470702,14.559483 c 0.2535254,0.286483 0.5243209,0.562148 0.8164058,0.822315 l 0.484375,0.429714 -0.6152339,0.285173 c -2.432443,1.128103 -4.509843,3.077324 -5.984375,5.615578 -0.922741,1.588405 -1.2539349,3.869568 -1.3730469,4.724898 C 2.4560832,27.29249 2.317159,28.271606 2.290039,29.234206 2.273566,29.819131 2.257451,30.282492 2.237305,30.876885 L 24.952148,8.1606544 C 24.917326,7.0698667 24.788681,6.7212909 24.543945,6.0374779 23.939746,4.3491834 23.01553,3.0140936 21.790039,2.015748 Z m 1.273437,14.631753 -15.3398433,15.340779 8.2558593,-0.01953 1.070312,0.002 10.691407,-10.692058 c -1.229193,-1.963885 -2.828619,-3.54684 -4.677735,-4.631189 z m 6.292969,9.613868 -5.724609,5.724958 6.130859,0.01367 -0.0059,-0.0625 c 0,0 -0.06078,-1.74069 -0.08789,-2.70329 -0.02712,-0.9626 -0.166044,-1.941716 -0.285156,-2.797045 -0.006,-0.04297 -0.02024,-0.125897 -0.02734,-0.175792 z" />
</svg>
